<?xml version="1.0" encoding="UTF-8"?>
<svg width="196px" height="195px" viewBox="0 0 196 195" version="1.1" xmlns="http://www.w3.org/2000/svg" xmlns:xlink="http://www.w3.org/1999/xlink">
    <title>jelly</title>
    <defs>
        <linearGradient x1="10.7517361%" y1="12.2243575%" x2="86.0763889%" y2="96.917693%" id="linearGradient-1">
            <stop stop-color="#BF8EFF" offset="0%"></stop>
            <stop stop-color="#A265FE" offset="100%"></stop>
        </linearGradient>
        <linearGradient x1="1.84461294%" y1="52.2344671%" x2="99.0350731%" y2="52.2344671%" id="linearGradient-2">
            <stop stop-color="#FFFFFF" stop-opacity="0.6" offset="0%"></stop>
            <stop stop-color="#FFF8FD" stop-opacity="0.38" offset="100%"></stop>
        </linearGradient>
        <linearGradient x1="-4.03717464e-14%" y1="46.875%" x2="98.8636364%" y2="46.875%" id="linearGradient-3">
            <stop stop-color="#8B5CF3" offset="0%"></stop>
            <stop stop-color="#8150EB" offset="100%"></stop>
        </linearGradient>
        <linearGradient x1="0.054501802%" y1="50.2581793%" x2="100%" y2="50.2581793%" id="linearGradient-4">
            <stop stop-color="#FFFFFF" offset="0%"></stop>
            <stop stop-color="#F6F4FF" offset="100%"></stop>
        </linearGradient>
        <linearGradient x1="0.0545277363%" y1="50.2702703%" x2="100%" y2="50.2702703%" id="linearGradient-5">
            <stop stop-color="#FFFFFF" offset="0%"></stop>
            <stop stop-color="#F6F4FF" offset="100%"></stop>
        </linearGradient>
    </defs>
    <g id="Page-1" stroke="none" stroke-width="1" fill="none" fill-rule="evenodd">
        <g id="Frame-2" transform="translate(-862, -66)">
            <g id="jelly" transform="translate(862, 66)">
                <path d="M96.1177175,0 C44.1530151,0 8.15132587,28.7760417 3.73602436,73.8020833 C1.69819289,89.375 0,117.8125 0,139.817708 C0,152.682292 2.03783147,164.869792 8.83060302,174.348958 C16.3026517,184.84375 31.2467492,194.322917 53.6628953,194.322917 L61.4745826,195 L124.986997,195 C134.836515,195 145.70495,193.984375 151.478806,192.96875 C164.045433,190.260417 173.555313,185.859375 181.027362,179.088542 C186.801218,173.671875 190.876881,167.239583 193.593989,157.760417 C194.952544,152.005208 195.631821,146.25 195.631821,139.479167 C194.952544,122.890625 191.556158,102.578125 190.876881,91.40625 C185.442664,40.2864583 160.988686,0 96.1177175,0 Z" id="Path" fill="url(#linearGradient-1)"></path>
                <path d="M187.480495,72.109375 C183.404832,84.9739583 172.536398,98.1770833 169.47965,117.8125 C165.064349,144.895833 153.516637,167.239583 121.250972,174.348958 C101.891573,178.75 83.2114516,178.072917 67.9277156,181.119792 C62.4934983,182.473958 53.3232567,185.859375 50.2665095,185.859375 C34.6431349,185.182292 22.4161461,179.427083 8.83060302,169.947917 C6.79277156,168.59375 4.94615136,167.553462 3.58759705,164.168045 C5.62542852,169.584712 8.37187047,174.889411 11.7682562,177.936286 C18.9006664,185.722744 30.6035525,191.631282 43.1701799,193.662532 C48.2647586,194.339616 55.3610882,195 61.4745826,195 L122.291107,195 C132.140626,195 143.707266,194.148095 150.500038,193.13247 C170.878352,188.731428 182.725555,180.78125 189.178688,170.286458 C193.593989,162.161458 196.311098,153.020833 195.971459,138.125 C195.292182,121.197917 188.839049,80.5729167 187.480495,72.109375 Z" id="Path" fill="#8855FF"></path>
                <path d="M57.3989197,17.6041667 C43.473738,23.359375 32.2656649,31.1458333 25.1332548,45.703125 C18.0008446,60.2604167 31.2467492,56.5364583 33.9638578,50.1041667 C43.8133765,36.2239583 55.0214496,30.1302083 65.8898841,26.0677083 L75.3997643,22.34375 C81.5132587,20.3125 82.871813,15.234375 77.0979572,13.5416667 C70.9844628,12.8645833 62.4934983,15.234375 57.3989197,17.6041667 L57.3989197,17.6041667 Z" id="Path" fill="url(#linearGradient-2)" opacity="0.5"></path>
                <path d="M60.4556669,75.15625 L63.8520526,73.4635417 L70.6448242,73.4635417 C77.0979572,73.4635417 84.2303673,80.5729167 84.2303673,87.0052083 L84.2303673,126.276042 C84.2303673,132.708333 78.7961501,138.463542 70.9844628,138.463542 C63.1727755,138.463542 54.3421725,132.708333 54.3421725,126.276042 L54.3421725,83.9583333 C54.3421725,80.234375 57.3989197,76.5104167 60.4556669,75.15625 L60.4556669,75.15625 Z" id="Path" fill="url(#linearGradient-3)"></path>
                <path d="M67.2484384,71.09375 C60.4556669,71.09375 54.3421725,76.5104167 54.3421725,83.6197917 L54.3421725,122.552083 C54.0025339,128.645833 60.1160283,133.723958 66.5691613,133.723958 C73.3619328,134.0625 79.1357886,128.645833 79.1357886,122.552083 L79.1357886,82.6041667 C79.1357886,77.1875 74.3808485,71.09375 67.2484384,71.09375 Z" id="Path" fill="url(#linearGradient-4)"></path>
                <path d="M115.477116,75.15625 L119.552779,73.125 L126.68519,73.125 C132.459045,72.109375 141.289648,80.5729167 141.289648,86.6666667 L141.289648,125.598958 C141.289648,132.708333 135.515793,138.463542 128.043744,138.463542 C121.250972,138.802083 113.439285,132.708333 110.042899,126.276042 L110.042899,83.9583333 C110.042899,80.5729167 112.760008,76.8489583 115.477116,75.15625 L115.477116,75.15625 Z" id="Path" fill="#7F51EF"></path>
                <path d="M123.628442,71.09375 C116.835671,71.09375 111.741092,75.8333333 111.741092,82.6041667 L111.741092,122.890625 C111.401454,128.645833 117.514948,133.723958 123.628442,133.723958 C129.741937,133.723958 136.534708,129.322917 136.534708,122.552083 L136.534708,82.6041667 C136.534708,76.8489583 131.100491,71.09375 123.628442,71.09375 L123.628442,71.09375 Z" id="Path" fill="url(#linearGradient-5)"></path>
            </g>
        </g>
    </g>
</svg>